<?xml version="1.0" encoding="UTF-8"?>
<svg xmlns="http://www.w3.org/2000/svg" xmlns:xlink="http://www.w3.org/1999/xlink" width="16px" height="16px" viewBox="0 0 16 16" version="1.1">
<g id="surface1">
<path style=" stroke:none;fill-rule:nonzero;fill:rgb(0%,0%,0%);fill-opacity:1;" d="M 8 0 C 12.417969 0 16 3.582031 16 8 C 16 12.417969 12.417969 16 8 16 C 3.582031 16 0 12.417969 0 8 C 0 3.582031 3.582031 0 8 0 Z M 8 0 "/>
<path style=" stroke:none;fill-rule:nonzero;fill:rgb(100%,100%,100%);fill-opacity:1;" d="M 4.539062 12.472656 L 3.90625 12.472656 C 3.507812 12.472656 3.203125 12.355469 2.988281 12.113281 C 2.773438 11.871094 2.667969 11.535156 2.667969 11.101562 L 2.667969 9.40625 C 2.667969 9.042969 2.585938 8.769531 2.421875 8.589844 C 2.257812 8.410156 2.003906 8.3125 1.660156 8.296875 L 1.660156 7.703125 C 2 7.691406 2.253906 7.59375 2.417969 7.414062 C 2.585938 7.234375 2.667969 6.960938 2.667969 6.597656 L 2.667969 4.898438 C 2.667969 4.457031 2.769531 4.121094 2.980469 3.882812 C 3.1875 3.644531 3.496094 3.527344 3.90625 3.527344 L 4.539062 3.527344 L 4.539062 4.132812 L 4.242188 4.132812 C 3.957031 4.132812 3.753906 4.214844 3.636719 4.378906 C 3.515625 4.546875 3.457031 4.800781 3.457031 5.136719 L 3.457031 6.804688 C 3.457031 7.101562 3.371094 7.355469 3.207031 7.566406 C 3.042969 7.78125 2.820312 7.921875 2.546875 7.988281 L 2.546875 8 C 2.824219 8.0625 3.046875 8.203125 3.210938 8.414062 C 3.375 8.625 3.457031 8.886719 3.457031 9.1875 L 3.457031 10.863281 C 3.457031 11.191406 3.515625 11.445312 3.636719 11.613281 C 3.753906 11.785156 3.957031 11.867188 4.242188 11.867188 L 4.539062 11.867188 Z M 9.871094 6.015625 L 8.398438 10.480469 L 7.679688 10.480469 L 6.160156 6.023438 C 6.179688 6.511719 6.1875 6.867188 6.1875 7.089844 L 6.1875 10.480469 L 5.371094 10.480469 L 5.371094 5.410156 L 6.683594 5.410156 L 7.71875 8.507812 C 7.878906 8.957031 7.984375 9.402344 8.035156 9.847656 C 8.101562 9.347656 8.210938 8.898438 8.355469 8.507812 L 9.386719 5.410156 L 10.644531 5.410156 L 10.644531 10.480469 L 9.835938 10.480469 L 9.835938 7.089844 L 9.847656 6.554688 Z M 11.46875 11.867188 L 11.746094 11.867188 C 12.03125 11.867188 12.234375 11.785156 12.359375 11.613281 C 12.484375 11.445312 12.542969 11.191406 12.542969 10.863281 L 12.542969 9.1875 C 12.542969 8.882812 12.625 8.621094 12.789062 8.410156 C 12.949219 8.199219 13.171875 8.058594 13.449219 8 L 13.449219 7.988281 C 13.179688 7.925781 12.960938 7.789062 12.796875 7.578125 C 12.628906 7.367188 12.542969 7.109375 12.542969 6.804688 L 12.542969 5.136719 C 12.542969 4.800781 12.484375 4.546875 12.359375 4.378906 C 12.234375 4.214844 12.03125 4.132812 11.746094 4.132812 L 11.46875 4.132812 L 11.46875 3.527344 L 12.085938 3.527344 C 12.496094 3.527344 12.804688 3.644531 13.011719 3.882812 C 13.21875 4.121094 13.324219 4.457031 13.324219 4.898438 L 13.324219 6.597656 C 13.324219 6.957031 13.40625 7.230469 13.570312 7.410156 C 13.738281 7.59375 13.992188 7.691406 14.339844 7.703125 L 14.339844 8.296875 C 13.988281 8.308594 13.730469 8.40625 13.566406 8.589844 C 13.40625 8.769531 13.324219 9.042969 13.324219 9.40625 L 13.324219 11.101562 C 13.324219 11.53125 13.214844 11.867188 13 12.109375 C 12.789062 12.351562 12.480469 12.472656 12.085938 12.472656 L 11.46875 12.472656 Z M 11.46875 11.867188 "/>
</g>
</svg>
